<?xml version="1.0" standalone="no"?>
<!DOCTYPE svg PUBLIC "-//W3C//DTD SVG 20010904//EN"
 "http://www.w3.org/TR/2001/REC-SVG-20010904/DTD/svg10.dtd">
<svg version="1.0" xmlns="http://www.w3.org/2000/svg"
 width="512.000000pt" height="512.000000pt" viewBox="0 0 512.000000 512.000000"
 preserveAspectRatio="xMidYMid meet">

<g transform="translate(0.000000,512.000000) scale(0.100000,-0.100000)"
fill="#cc2229" stroke="none">
<path d="M2550 4584 c-338 -195 -625 -366 -637 -380 l-23 -25 0 -425 c0 -353
2 -430 15 -453 23 -46 75 -55 116 -22 l24 19 5 360 5 361 115 -67 c64 -37 128
-75 143 -85 l27 -17 0 -224 c0 -200 2 -225 18 -238 34 -31 369 -218 389 -218
11 0 32 9 47 21 l26 20 0 180 c0 98 3 179 8 178 4 0 68 -35 142 -78 l135 -79
3 -611 2 -611 -48 27 c-26 16 -208 120 -405 233 -196 113 -356 208 -357 213 0
4 47 7 105 7 92 0 108 3 125 20 27 27 27 83 0 110 -20 20 -33 20 -674 20 -360
0 -662 -3 -671 -6 -24 -10 -46 -60 -39 -89 14 -55 16 -55 431 -55 l382 0 598
-346 c329 -190 609 -347 623 -350 19 -4 75 24 230 114 113 65 392 226 620 358
228 131 423 247 432 257 17 16 18 65 18 751 0 684 -1 735 -17 754 -16 17
-1102 651 -1220 711 -23 11 -50 21 -60 21 -10 0 -295 -160 -633 -356z m795 93
c66 -38 121 -70 123 -71 3 -3 -1016 -592 -1040 -601 -12 -5 -62 19 -153 71
-74 43 -135 80 -135 83 1 3 236 141 523 307 438 252 525 299 542 291 11 -6 74
-41 140 -80z m373 -215 l83 -48 -517 -298 c-284 -164 -523 -300 -533 -303 -9
-2 -52 17 -95 43 l-79 46 69 40 c38 22 260 150 492 285 233 134 438 253 455
264 18 10 34 19 37 19 3 0 42 -22 88 -48z m378 -218 c74 -42 136 -79 138 -83
3 -4 -232 -143 -520 -309 l-524 -303 -135 77 c-75 42 -137 80 -140 84 -2 3
163 103 368 221 204 118 439 253 522 301 82 48 152 87 154 88 2 0 63 -34 137
-76z m222 -841 l-3 -608 -520 -300 -520 -301 -3 605 c-2 476 1 608 10 617 7 6
182 108 388 227 206 118 434 250 505 291 72 42 133 76 138 76 4 0 6 -273 5
-607z m-1730 308 l72 -42 0 -134 c0 -74 -3 -135 -6 -135 -4 0 -40 19 -80 42
l-74 42 0 139 c0 76 3 136 8 134 4 -2 40 -23 80 -46z"/>
<path d="M1535 3168 c-51 -27 -60 -84 -20 -123 l24 -25 401 0 401 0 24 25 c40
39 32 96 -16 120 -23 12 -94 15 -411 15 -258 -1 -390 -4 -403 -12z"/>
<path d="M1855 2134 c-11 -2 -45 -9 -75 -15 -72 -14 -120 -40 -523 -272 l-338
-196 -23 37 c-13 20 -30 51 -40 69 -18 36 -43 53 -78 53 -13 0 -147 -71 -298
-158 -293 -168 -314 -186 -294 -239 10 -27 980 -1195 1013 -1220 9 -7 27 -13
40 -13 30 0 336 175 356 204 24 33 18 67 -25 136 -46 76 -51 66 80 138 95 52
182 75 250 66 25 -3 281 -70 570 -147 499 -134 530 -141 620 -141 153 -1 144
-5 705 319 1134 655 1059 610 1101 666 66 90 54 206 -33 309 -41 49 -138 108
-216 132 -95 28 -218 23 -298 -14 -31 -14 -217 -119 -415 -233 -197 -114 -393
-225 -435 -246 -71 -35 -129 -57 -129 -47 0 2 5 29 10 60 13 70 -1 166 -35
243 -28 64 -104 149 -158 177 -34 17 -593 172 -1037 286 -149 39 -253 55 -295
46z m439 -249 c171 -46 424 -113 561 -150 182 -49 259 -74 284 -92 75 -57 111
-216 65 -293 -37 -64 -50 -63 -412 34 -212 56 -332 84 -348 80 -57 -14 -72
-101 -24 -135 39 -28 650 -189 746 -196 126 -9 261 21 399 90 33 16 239 133
458 260 396 228 400 230 467 235 99 7 170 -18 237 -83 60 -58 67 -88 31 -129
-13 -14 -359 -219 -770 -455 -797 -460 -815 -469 -924 -458 -28 3 -253 59
-500 125 -247 67 -485 130 -529 142 -111 29 -238 29 -327 0 -36 -12 -108 -46
-160 -76 -72 -41 -95 -51 -104 -41 -16 18 -446 768 -442 772 13 11 743 427
765 436 52 20 108 28 162 22 30 -2 194 -42 365 -88z m-1207 -846 c183 -316
332 -576 333 -579 0 -3 -35 -25 -76 -49 -53 -31 -81 -41 -90 -35 -24 16 -865
1027 -862 1035 4 12 341 207 353 205 6 -1 159 -261 342 -577z"/>
</g>
</svg>
