<?xml version="1.0" standalone="no"?>
<!DOCTYPE svg PUBLIC "-//W3C//DTD SVG 20010904//EN"
 "http://www.w3.org/TR/2001/REC-SVG-20010904/DTD/svg10.dtd">
<svg version="1.0" xmlns="http://www.w3.org/2000/svg"
 width="512.000000pt" height="512.000000pt" viewBox="0 0 512.000000 512.000000"
 preserveAspectRatio="xMidYMid meet">

<g transform="translate(0.000000,512.000000) scale(0.100000,-0.100000)"
fill="#cc2229" stroke="10">
<path d="M3410 4965 l-85 -85 246 -248 247 -247 -66 -86 -65 -86 -91 55 c-310
189 -677 292 -1038 292 -266 0 -583 -68 -810 -173 l-75 -34 -13 56 c-34 158
-113 294 -238 412 -91 86 -164 132 -270 170 -355 125 -737 -4 -942 -318 -145
-220 -170 -525 -65 -767 20 -47 128 -219 265 -426 l232 -349 -25 -108 c-44
-184 -52 -258 -51 -468 0 -164 4 -224 23 -330 19 -108 68 -293 96 -367 6 -15
1 -18 -35 -18 -73 0 -121 -21 -175 -75 -71 -70 -91 -146 -63 -237 14 -48 76
-121 118 -138 l30 -12 0 -89 0 -89 -241 0 -241 0 5 -207 c4 -172 8 -220 26
-280 88 -302 299 -512 604 -605 70 -21 90 -22 614 -26 463 -3 556 -1 635 13
112 19 233 67 327 129 85 57 214 192 261 273 l34 61 96 6 c181 13 440 66 583
121 16 7 17 -7 17 -195 0 -130 4 -217 12 -244 16 -55 99 -138 154 -154 59 -17
1369 -17 1428 0 55 16 138 99 154 154 17 59 17 1209 0 1268 -16 55 -99 138
-154 154 -27 8 -122 12 -279 12 -186 0 -236 3 -232 13 3 6 22 50 42 97 182
425 202 947 54 1395 -45 133 -135 326 -198 423 -23 35 -42 67 -44 71 -1 5 36
38 83 74 l85 65 248 -247 247 -246 86 86 86 87 -119 358 -119 359 48 60 c205
253 65 623 -256 678 -121 20 -253 -18 -347 -102 l-43 -38 -355 118 c-196 66
-358 119 -361 119 -3 0 -44 -38 -90 -85z m-2395 -100 c214 -44 409 -223 476
-435 46 -144 33 -341 -29 -474 -46 -97 -529 -815 -557 -828 -19 -8 -31 -8 -50
0 -28 13 -511 731 -557 828 -113 242 -60 543 132 734 156 156 369 220 585 175z
m2841 -102 l232 -78 -82 -87 -82 -87 -170 171 c-93 93 -160 167 -149 164 11
-3 124 -41 251 -83z m799 9 c47 -24 95 -73 121 -122 27 -51 26 -172 -3 -225
-28 -53 -369 -389 -503 -495 -121 -96 -284 -205 -418 -279 -103 -57 -263 -131
-283 -131 -19 0 -49 31 -49 50 0 47 143 316 265 500 122 182 197 272 410 488
227 231 247 244 360 238 35 -2 77 -12 100 -24z m-1981 -406 c86 -50 222 -232
272 -363 l17 -44 -26 -27 c-15 -16 -27 -30 -27 -33 0 -3 23 -16 50 -29 l51
-24 29 -95 c16 -53 32 -108 36 -123 l6 -28 -521 0 c-287 0 -521 2 -521 4 0 2
11 44 25 92 109 377 266 631 430 692 46 17 130 7 179 -22z m-481 -18 c-4 -7
-29 -44 -54 -83 -93 -140 -169 -318 -233 -543 l-33 -117 -222 -3 -221 -2 71
107 c40 60 85 135 100 168 27 57 63 185 74 266 5 35 9 38 113 86 104 49 210
87 322 117 72 19 93 20 83 4z m844 -13 c126 -34 259 -86 379 -150 131 -69 192
-109 172 -113 -8 -2 -105 20 -214 47 l-199 50 -42 -41 c-24 -23 -44 -40 -46
-37 -2 2 -21 36 -42 74 -21 39 -57 98 -81 133 -24 34 -38 62 -31 62 7 0 53
-11 104 -25z m1809 -730 c3 -11 -71 56 -164 149 l-171 170 87 82 87 82 78
-232 c42 -127 80 -240 83 -251z m-1488 354 c70 -18 131 -35 135 -39 8 -7 -37
-110 -48 -110 -3 0 -64 30 -136 66 l-131 65 23 25 c12 13 24 24 26 24 2 0 61
-14 131 -31z m-59 -259 c76 -38 79 -41 72 -67 -7 -27 -10 -28 -66 -28 l-58 0
-18 65 c-10 36 -18 66 -19 68 -1 6 16 -1 89 -38z m841 -200 c149 -256 216
-469 254 -812 l6 -48 -519 0 -518 0 -7 123 c-13 242 -51 591 -72 660 -5 15 2
17 56 17 52 0 67 -4 98 -29 61 -47 138 -64 196 -41 26 9 27 8 142 -223 64
-127 118 -234 121 -237 2 -2 64 56 138 130 l134 135 -49 195 c-27 107 -49 204
-49 215 l0 20 15 -20 c9 -11 33 -49 54 -85z m-182 -140 l33 -134 -25 -24 -24
-25 -66 131 c-36 73 -66 134 -66 137 0 8 94 54 105 51 5 -1 24 -62 43 -136z
m-2122 63 c-22 -76 -59 -413 -72 -655 l-7 -128 -518 0 -518 0 5 53 c9 97 25
212 36 254 l10 41 34 -14 c68 -28 173 -7 231 48 11 11 81 109 154 219 l132
199 259 0 c242 0 259 -1 254 -17z m1288 -10 c27 -132 60 -430 71 -645 l7 -128
-641 0 -641 0 0 28 c0 145 36 520 66 685 l16 87 558 0 558 0 6 -27z m-1360
-1050 c7 -121 32 -405 43 -480 l6 -43 -475 0 -475 0 -36 108 c-58 172 -80 274
-102 475 l-6 57 519 0 520 0 6 -117z m1436 78 c0 -143 -35 -500 -66 -673 l-16
-88 -488 0 c-485 0 -489 0 -495 21 -11 35 -66 89 -115 114 l-46 23 -12 94
c-16 128 -29 280 -37 426 l-7 122 641 0 641 0 0 -39z m1196 2 c-3 -21 -8 -67
-11 -103 -16 -166 -79 -385 -162 -562 l-46 -98 -449 0 c-423 0 -449 1 -444 18
21 72 60 422 72 650 l7 132 519 0 520 0 -6 -37z m-2421 -788 c33 -32 33 -78 0
-110 l-24 -25 -671 0 -671 0 -24 25 c-16 15 -25 36 -25 55 0 19 9 40 25 55
l24 25 671 0 671 0 24 -25z m1105 -141 c0 -23 -69 -236 -109 -333 -80 -197
-179 -344 -276 -411 -24 -17 -46 -30 -49 -30 -3 0 -6 32 -6 70 l0 70 -175 0
-175 0 -127 254 -126 253 40 37 c22 20 46 50 53 66 l12 30 469 0 c258 0 469
-3 469 -6z m206 -16 c-3 -13 -6 -161 -6 -329 l0 -306 -137 -45 c-158 -53 -230
-68 -217 -47 5 8 30 46 55 84 92 138 168 316 229 531 17 60 33 115 35 122 2 6
14 12 26 12 17 0 20 -4 15 -22z m474 -138 l0 -160 400 0 400 0 0 160 0 160
135 0 c131 0 137 -1 160 -25 l25 -24 0 -591 0 -591 -25 -24 -24 -25 -671 0
-671 0 -24 25 -25 24 0 591 0 591 25 24 c23 24 29 25 160 25 l135 0 0 -160z
m640 80 l0 -80 -240 0 -240 0 0 80 0 80 240 0 240 0 0 -80z m-2410 -320 l120
-240 -550 0 -550 0 -80 160 -80 160 -65 0 -65 0 0 80 0 80 575 0 575 0 120
-240z m-1160 -240 l80 -160 780 0 c617 0 780 -3 780 -12 0 -25 -58 -134 -104
-195 -83 -110 -201 -193 -341 -241 l-80 -27 -570 0 -570 0 -80 27 c-112 39
-198 92 -280 173 -132 132 -193 277 -202 478 l-6 117 257 0 256 0 80 -160z" stroke-width="100"/>
<path d="M761 4704 c-253 -68 -410 -331 -346 -579 67 -256 329 -415 580 -350
256 67 415 329 350 578 -67 259 -333 419 -584 351z m270 -185 c67 -36 98 -68
137 -143 22 -43 26 -64 26 -136 1 -78 -2 -90 -33 -148 -38 -70 -70 -100 -145
-140 -43 -22 -64 -26 -136 -26 -72 0 -93 4 -136 26 -75 40 -107 70 -145 140
-31 58 -34 70 -33 148 0 100 24 160 89 225 100 100 249 121 376 54z"/>
<path d="M4442 4557 l-52 -53 58 -57 58 -57 54 55 54 55 -54 55 c-30 30 -57
55 -60 55 -3 0 -29 -24 -58 -53z"/>
<path d="M4220 4335 l-55 -55 58 -58 57 -57 55 55 55 55 -58 58 -58 57 -54
-55z"/>
<path d="M3997 4112 c-26 -26 -47 -52 -47 -58 0 -13 93 -104 106 -104 5 0 32
23 59 50 l49 50 -54 55 c-30 30 -57 55 -60 55 -3 0 -27 -22 -53 -48z"/>
<path d="M2160 2880 l0 -80 80 0 80 0 0 80 0 80 -80 0 -80 0 0 -80z"/>
<path d="M2480 2880 l0 -80 80 0 80 0 0 80 0 80 -80 0 -80 0 0 -80z"/>
<path d="M2800 2880 l0 -80 80 0 80 0 0 80 0 80 -80 0 -80 0 0 -80z"/>
<path d="M2160 2240 l0 -80 80 0 80 0 0 80 0 80 -80 0 -80 0 0 -80z"/>
<path d="M2480 2240 l0 -80 80 0 80 0 0 80 0 80 -80 0 -80 0 0 -80z"/>
<path d="M2800 2240 l0 -80 80 0 80 0 0 80 0 80 -80 0 -80 0 0 -80z"/>
<path d="M4240 480 l0 -80 80 0 80 0 0 80 0 80 -80 0 -80 0 0 -80z"/>
<path d="M4560 480 l0 -80 80 0 80 0 0 80 0 80 -80 0 -80 0 0 -80z"/>
<path d="M1040 1120 l0 -80 80 0 80 0 0 80 0 80 -80 0 -80 0 0 -80z"/>
<path d="M1360 1120 l0 -80 80 0 80 0 0 80 0 80 -80 0 -80 0 0 -80z"/>
<path d="M1680 1120 l0 -80 80 0 80 0 0 80 0 80 -80 0 -80 0 0 -80z"/>
</g>
</svg>
