<?xml version="1.0" standalone="no"?>
<!DOCTYPE svg PUBLIC "-//W3C//DTD SVG 20010904//EN"
 "http://www.w3.org/TR/2001/REC-SVG-20010904/DTD/svg10.dtd">
<svg version="1.0" xmlns="http://www.w3.org/2000/svg"
 width="512.000000pt" height="512.000000pt" viewBox="0 0 512.000000 512.000000"
 preserveAspectRatio="xMidYMid meet">

<g transform="translate(0.000000,512.000000) scale(0.100000,-0.100000)"
fill="#cc2229" stroke="none">
<path d="M2475 5020 c-27 -5 -65 -12 -83 -15 -60 -11 -70 -33 -69 -153 1 -122
-15 -175 -65 -217 -37 -31 -69 -31 -134 -1 -46 21 -154 117 -154 137 0 15 -62
41 -85 35 -29 -7 -160 -102 -244 -175 -123 -107 -291 -317 -291 -363 0 -11 32
-51 73 -92 82 -81 117 -142 117 -202 0 -45 -21 -74 -70 -100 -28 -15 -60 -19
-158 -20 -145 -1 -155 -7 -172 -93 -22 -114 6 -101 -209 -101 l-189 0 -17 98
c-42 240 -65 336 -91 388 -37 73 -127 157 -211 196 -61 29 -79 32 -184 36
-108 4 -118 3 -138 -17 -28 -28 -28 -84 -1 -111 16 -16 33 -20 93 -20 134 0
232 -48 290 -141 33 -54 5 88 328 -1682 132 -726 248 -1341 258 -1368 23 -60
80 -139 129 -177 88 -70 189 -102 317 -102 l73 0 -36 -71 c-36 -70 -37 -74
-37 -183 0 -100 3 -117 27 -169 77 -165 254 -259 429 -229 211 36 348 206 337
417 -4 79 -10 98 -76 228 -2 4 263 7 588 7 l591 0 -20 -26 c-11 -14 -30 -51
-41 -82 -93 -247 53 -500 315 -545 262 -45 501 196 455 460 -6 38 -26 95 -45
130 l-33 63 225 0 c268 0 283 4 283 81 0 24 -7 42 -21 55 -21 18 -65 19 -1578
24 -1492 5 -1557 6 -1591 24 -49 26 -108 84 -131 129 -16 30 -49 162 -49 193
0 2 727 4 1615 4 1178 0 1621 3 1639 11 13 7 29 23 35 38 20 50 571 2239 571
2268 0 18 -9 38 -23 51 -23 21 -30 22 -367 24 l-343 3 -12 58 c-16 78 -32 92
-103 90 -82 -2 -188 14 -232 37 -58 30 -92 76 -84 114 11 55 58 128 108 170
80 67 96 84 96 105 0 29 -108 185 -189 273 -73 79 -191 180 -273 236 -71 48
-99 44 -162 -24 -62 -68 -117 -108 -174 -125 -58 -17 -103 4 -134 63 -20 38
-23 58 -24 167 -1 149 -1 150 -131 176 -100 20 -436 29 -518 15z m320 -140
c50 -6 107 -15 128 -21 37 -10 37 -10 37 -62 0 -60 23 -165 46 -208 23 -46 83
-108 123 -129 58 -29 112 -33 183 -15 72 18 123 46 198 108 l54 45 56 -43 c61
-47 210 -198 254 -258 l29 -37 -57 -60 c-81 -85 -111 -154 -111 -255 0 -74 2
-83 33 -128 65 -92 176 -149 323 -163 l67 -6 6 -37 c14 -86 2 -349 -20 -423
-4 -15 -17 -18 -74 -18 -142 0 -266 -65 -315 -164 -24 -49 -27 -65 -23 -128 4
-88 43 -178 108 -251 41 -46 42 -49 29 -75 -19 -36 -234 -251 -286 -286 l-43
-28 -55 50 c-31 28 -86 66 -123 84 -56 28 -77 33 -137 33 -52 -1 -80 -6 -110
-22 -51 -27 -107 -86 -135 -142 -24 -48 -50 -157 -50 -213 l0 -36 -77 -7 c-78
-8 -327 0 -374 11 -26 6 -27 8 -31 100 -4 79 -10 104 -37 159 -96 195 -302
216 -504 51 l-58 -47 -57 48 c-75 63 -180 172 -236 243 l-45 57 50 49 c30 29
65 79 87 123 31 62 36 83 36 140 0 159 -134 274 -336 288 l-77 6 -7 66 c-7 69
1 298 14 366 l7 40 80 7 c227 19 345 129 333 311 -5 80 -42 158 -110 232 l-50
55 40 53 c49 63 165 177 245 241 l59 47 58 -55 c122 -113 259 -146 370 -89 96
49 157 160 167 305 6 78 6 78 37 83 97 16 173 17 281 5z m-1693 -1425 c-3 -58
13 -223 30 -310 18 -92 36 -105 151 -105 159 0 257 -47 257 -122 0 -58 -46
-133 -126 -206 -57 -51 -74 -73 -74 -94 0 -76 238 -351 411 -475 123 -89 122
-89 214 -4 89 83 143 114 201 115 51 1 79 -21 107 -84 17 -37 20 -64 19 -157
-1 -108 0 -113 23 -131 27 -22 176 -47 335 -57 106 -7 282 8 357 30 77 23 85
37 88 157 3 115 20 177 62 220 57 60 163 21 270 -98 50 -56 73 -74 92 -74 104
0 541 433 541 536 0 22 -16 45 -64 94 -142 143 -154 255 -34 306 33 13 72 18
160 18 92 1 121 4 133 17 23 23 54 197 62 347 l6 132 275 0 c256 0 274 -1 270
-17 -2 -10 -121 -478 -264 -1040 l-259 -1023 -1595 0 -1595 0 -178 1023 c-98
562 -181 1030 -184 1040 -4 16 6 17 153 15 l158 -3 -2 -50z m919 -2732 c125
-64 170 -214 104 -343 -20 -40 -92 -98 -134 -110 -56 -16 -142 -12 -186 9 -48
22 -97 70 -122 120 -26 53 -24 163 5 218 63 120 211 167 333 106z m1815 4 c18
-9 46 -31 63 -48 53 -53 66 -86 66 -175 0 -72 -3 -86 -30 -130 -64 -103 -199
-143 -313 -94 -92 40 -142 118 -142 222 0 102 46 179 132 223 46 23 62 26 123
22 39 -2 84 -11 101 -20z"/>
<path d="M2545 4329 c-179 -35 -336 -119 -466 -248 -262 -261 -340 -659 -197
-1007 99 -240 331 -438 603 -516 115 -33 334 -33 450 0 219 63 411 199 529
377 49 73 110 204 131 280 26 94 31 294 10 396 -68 336 -307 595 -642 695 -73
22 -112 27 -228 30 -77 1 -162 -1 -190 -7z m380 -169 c130 -41 222 -96 315
-190 123 -123 188 -244 216 -399 17 -99 17 -150 -1 -256 -58 -333 -319 -584
-650 -625 -140 -17 -302 12 -435 80 -271 137 -438 448 -401 746 22 179 96 332
220 454 109 107 229 172 375 206 89 20 271 12 361 -16z"/>
<path d="M4152 2093 c-14 -13 -32 -61 -57 -158 -20 -77 -38 -148 -41 -157 -5
-16 -21 -18 -150 -18 -131 0 -146 -2 -164 -20 -26 -26 -27 -90 -2 -113 16 -15
46 -17 214 -17 189 0 195 1 215 23 15 15 35 79 67 215 25 106 46 198 46 203 0
5 -11 21 -25 34 -29 30 -74 33 -103 8z"/>
</g>
</svg>
