<?xml version="1.0" standalone="no"?>
<!DOCTYPE svg PUBLIC "-//W3C//DTD SVG 20010904//EN"
 "http://www.w3.org/TR/2001/REC-SVG-20010904/DTD/svg10.dtd">
<svg version="1.0" xmlns="http://www.w3.org/2000/svg"
 width="512.000000pt" height="512.000000pt" viewBox="0 0 512.000000 512.000000"
 preserveAspectRatio="xMidYMid meet">

<g transform="translate(0.000000,512.000000) scale(0.100000,-0.100000)"
fill="#cc2229" stroke="none">
<path d="M1671 4944 c-21 -26 -21 -35 -21 -581 0 -529 -1 -555 -19 -574 -33
-36 -43 -161 -17 -223 27 -64 55 -76 180 -76 l111 0 26 -33 c14 -18 49 -45 78
-60 109 -60 234 -43 325 45 l50 48 294 0 295 0 52 -49 c113 -107 262 -107 378
-1 l55 50 119 0 c91 0 124 4 141 16 38 27 52 67 52 154 0 82 -7 108 -40 145
-16 17 -19 45 -22 215 l-3 195 -47 75 c-108 173 -195 296 -221 315 -26 18 -46
20 -248 23 l-219 3 0 143 c0 130 -2 146 -21 170 l-20 26 -619 0 -619 0 -20
-26z m1159 -614 l0 -500 -241 0 c-238 0 -241 0 -272 24 -109 81 -228 85 -337
10 -45 -31 -56 -34 -120 -34 l-70 0 0 500 0 500 520 0 520 0 0 -500z m250 15
c0 -142 1 -147 25 -170 l24 -25 221 0 221 0 -3 -157 -3 -158 -72 -3 c-68 -3
-74 -1 -117 32 -40 30 -114 56 -161 56 -47 0 -121 -26 -161 -56 -24 -19 -53
-34 -64 -34 -20 0 -20 7 -20 330 l0 330 55 0 55 0 0 -145z m338 60 c29 -44 57
-88 63 -97 9 -17 0 -18 -126 -18 l-135 0 0 100 0 101 72 -3 73 -3 53 -80z
m-1199 -652 c33 -25 61 -79 61 -119 0 -71 -81 -139 -154 -130 -106 13 -158
129 -96 217 43 59 131 74 189 32z m1044 13 c18 -7 45 -28 60 -45 52 -62 27
-170 -47 -205 -94 -45 -196 20 -196 124 0 55 25 95 75 120 47 24 65 25 108 6z
m-1401 -106 c-4 -29 -5 -30 -63 -30 -59 0 -59 0 -59 30 l0 30 63 0 64 0 -5
-30z m1078 0 l0 -30 -260 0 -260 0 0 30 0 30 260 0 260 0 0 -30z m690 0 l0
-30 -70 0 -70 0 0 30 0 30 70 0 70 0 0 -30z"/>
<path d="M2095 3685 c-14 -13 -25 -33 -25 -45 0 -27 43 -70 70 -70 27 0 70 43
70 70 0 27 -43 70 -70 70 -11 0 -32 -11 -45 -25z"/>
<path d="M3182 3698 c-46 -23 -39 -105 10 -122 77 -27 126 89 53 122 -30 14
-33 14 -63 0z"/>
<path d="M4196 3759 c-44 -34 -35 -68 39 -164 231 -296 374 -652 415 -1037 11
-106 12 -299 1 -337 -6 -22 -10 -19 -61 45 -46 57 -61 70 -89 72 -42 4 -71
-21 -71 -62 0 -24 24 -63 106 -169 113 -147 141 -173 176 -163 25 7 272 194
301 227 23 28 22 64 -3 89 -34 34 -71 25 -148 -35 l-71 -55 6 127 c15 331 -63
690 -217 1009 -87 179 -264 438 -318 463 -31 15 -35 14 -66 -10z"/>
<path d="M930 3738 c-98 -13 -153 -25 -170 -37 -33 -24 -38 -73 -11 -100 23
-23 46 -25 141 -11 35 5 66 8 67 6 2 -2 -24 -47 -58 -101 -158 -252 -260 -535
-304 -850 -28 -196 -12 -616 26 -687 14 -26 54 -40 83 -28 45 17 49 41 32 160
-21 141 -21 405 0 551 29 210 87 403 179 594 53 110 153 280 161 273 2 -3 9
-40 15 -84 15 -103 28 -124 79 -124 31 0 43 5 56 25 15 23 14 37 -7 206 -27
212 -35 230 -102 228 -23 -1 -107 -10 -187 -21z"/>
<path d="M2551 3064 c-21 -18 -33 -38 -37 -65 -14 -87 -70 -112 -141 -63 -31
21 -46 25 -82 21 -38 -4 -53 -14 -113 -74 -58 -58 -70 -76 -75 -111 -5 -34 -1
-49 21 -82 34 -52 34 -92 0 -119 -15 -12 -40 -21 -56 -21 -21 0 -41 -11 -64
-34 l-34 -34 0 -101 c0 -140 18 -170 108 -186 72 -12 93 -72 47 -135 -17 -23
-25 -47 -25 -73 0 -35 8 -47 72 -113 94 -98 144 -110 214 -55 15 12 38 21 51
21 32 0 73 -42 73 -75 0 -77 58 -115 174 -115 121 0 166 28 181 113 14 73 63
94 125 53 28 -19 53 -26 86 -26 43 0 50 4 115 67 94 91 105 135 52 213 -26 39
-28 49 -11 85 8 17 24 29 52 36 70 19 85 28 106 61 25 41 28 179 6 233 -16 37
-59 65 -101 65 -33 0 -75 41 -75 73 0 13 9 36 21 51 31 40 41 83 25 120 -7 17
-45 61 -84 99 -62 59 -75 67 -109 67 -26 0 -50 -8 -73 -25 -64 -48 -124 -25
-136 51 -4 30 -16 54 -36 74 -29 30 -31 30 -138 30 -102 0 -110 -2 -139 -26z
m184 -143 c26 -119 184 -188 297 -130 l41 21 25 -25 25 -26 -23 -52 c-28 -66
-23 -130 15 -195 28 -48 55 -70 113 -89 33 -12 37 -17 40 -52 3 -38 2 -39 -41
-50 -30 -8 -56 -26 -85 -57 -65 -70 -78 -154 -37 -240 l18 -38 -26 -26 c-26
-26 -27 -26 -56 -9 -41 24 -108 31 -160 17 -60 -16 -129 -81 -144 -137 -11
-41 -13 -43 -48 -43 -34 0 -37 3 -53 44 -25 64 -53 95 -110 122 -63 30 -113
30 -177 2 l-50 -21 -25 25 -25 25 21 42 c31 59 25 152 -13 210 -30 45 -75 78
-120 88 -26 5 -28 9 -25 45 3 36 6 41 42 53 111 38 172 192 116 295 l-18 35
25 27 25 26 41 -19 c53 -24 130 -24 182 0 47 21 102 80 111 119 10 40 12 42
54 42 34 0 39 -3 45 -29z"/>
<path d="M2565 2740 c-120 -40 -208 -131 -246 -254 -58 -184 31 -381 209 -464
50 -24 69 -27 162 -27 95 0 110 3 163 28 244 120 295 446 98 630 -74 69 -147
100 -246 104 -60 2 -95 -2 -140 -17z m207 -136 c133 -45 200 -213 135 -341
-46 -89 -119 -133 -219 -133 -80 0 -132 24 -184 83 -169 191 25 474 268 391z"/>
<path d="M150 1922 c-19 -9 -40 -28 -47 -42 -10 -19 -13 -161 -13 -601 0 -553
1 -578 19 -600 l19 -24 692 0 692 0 19 24 c18 22 19 44 19 410 l0 388 -25 23
c-30 28 -26 28 -287 -43 l-198 -54 0 37 c0 41 -32 80 -66 80 -10 -1 -115 -27
-231 -59 l-213 -58 0 224 c0 251 -5 274 -65 299 -53 22 -269 19 -315 -4z m240
-162 l0 -40 -80 0 -80 0 0 40 0 40 80 0 80 0 0 -40z m-2 -572 l-3 -393 -77 -3
-78 -3 0 396 0 395 80 0 80 0 -2 -392z m512 -113 l0 -285 -185 0 -185 0 0 234
0 234 113 30 c88 25 178 49 255 71 1 1 2 -127 2 -284z m510 0 l0 -285 -185 0
-185 0 0 234 0 234 83 22 c62 16 266 73 285 79 1 1 2 -127 2 -284z"/>
<path d="M582 1148 l3 -53 48 -3 47 -3 0 55 0 56 -51 0 -50 0 3 -52z"/>
<path d="M744 1186 c-3 -8 -4 -31 -2 -52 l3 -39 50 0 50 0 3 53 3 52 -51 0
c-34 0 -52 -5 -56 -14z"/>
<path d="M1092 1148 l3 -53 50 0 50 0 3 53 3 52 -56 0 -56 0 3 -52z"/>
<path d="M1262 1148 l3 -53 45 0 45 0 3 53 3 52 -51 0 -51 0 3 -52z"/>
<path d="M4242 1844 c-62 -23 -145 -103 -172 -166 -31 -70 -32 -174 -3 -239
37 -84 117 -155 203 -179 l25 -7 -30 -7 c-187 -43 -314 -127 -404 -266 -54
-83 -82 -169 -88 -270 -5 -74 -3 -91 15 -127 12 -22 35 -53 53 -67 212 -179
837 -174 1027 7 54 51 66 82 64 169 -2 146 -82 313 -195 413 -64 56 -167 109
-244 126 -71 15 -83 24 -46 33 40 10 115 60 140 93 52 71 67 115 67 198 1 65
-4 89 -23 129 -30 60 -86 118 -143 147 -56 29 -183 36 -246 13z m207 -154 c37
-26 70 -90 71 -135 0 -50 -40 -117 -85 -142 -98 -55 -216 -4 -244 104 -19 72
13 148 77 183 51 28 136 23 181 -10z m16 -595 c167 -44 296 -189 325 -365 12
-80 0 -102 -80 -142 -87 -43 -195 -61 -360 -61 -200 1 -354 36 -417 95 -66 62
18 298 138 389 117 89 258 119 394 84z"/>
<path d="M1939 652 c-86 -37 -164 -73 -173 -81 -9 -7 -16 -26 -16 -40 0 -39
127 -342 152 -364 43 -36 108 -6 108 51 0 15 -14 58 -30 96 -16 38 -28 71 -26
73 1 2 23 -4 47 -12 79 -29 232 -65 349 -85 339 -55 689 -25 1019 86 136 46
222 84 254 112 27 24 22 78 -8 98 -32 21 -54 16 -191 -40 -333 -138 -741 -179
-1101 -110 -101 19 -261 62 -293 79 -24 13 -24 14 -5 21 59 22 131 57 147 71
41 37 7 114 -49 112 -16 0 -98 -31 -184 -67z"/>
</g>
</svg>
